<?xml version="1.0" standalone="no"?><!DOCTYPE svg PUBLIC "-//W3C//DTD SVG 1.1//EN" "http://www.w3.org/Graphics/SVG/1.1/DTD/svg11.dtd"><svg class="icon" width="200px" height="168.84px" viewBox="0 0 1213 1024" version="1.1" xmlns="http://www.w3.org/2000/svg"><path fill="#333333" d="M1122.69758 90.310254a295.471439 295.471439 0 0 0-417.993595 0l-98.490479 98.096518L508.116988 90.310254A295.471439 295.471439 0 1 0 90.123393 507.909887l512.150493 512.150494 3.151696 3.545657L1122.69758 507.909887a294.683515 294.683515 0 0 0 0-417.599633z m-1004.602891 27.577335a256.469209 256.469209 0 0 1 362.051003 0l98.490479 98.490479 389.234375 389.234375L870.561953 702.527075l-153.251187-152.857224a19.698096 19.698096 0 0 0-27.971296 0 19.698096 19.698096 0 0 0 0 27.577334l153.251186 153.251186-112.673108 112.673109-152.857224-153.251186a20.092058 20.092058 0 0 0-27.971297 0 19.698096 19.698096 0 0 0 0 27.971296l153.645148 152.463262-96.914631 96.914632L118.094689 480.332553a256.863171 256.863171 0 0 1 0-362.444964z m976.631595 362.051002l-98.49048 98.49048L634.184802 216.378068l98.490479-98.490479a256.469209 256.469209 0 0 1 437.297729 181.616444 252.529589 252.529589 0 0 1-75.246726 180.434558z" /></svg>