<?xml version="1.0" standalone="no"?><!DOCTYPE svg PUBLIC "-//W3C//DTD SVG 1.1//EN" "http://www.w3.org/Graphics/SVG/1.1/DTD/svg11.dtd"><svg class="icon" width="200px" height="200.00px" viewBox="0 0 1024 1024" version="1.1" xmlns="http://www.w3.org/2000/svg"><path fill="#333333" d="M708.1 375.8m-80 0a80 80 0 1 0 160 0 80 80 0 1 0-160 0ZM316 647.5m-80 0a80 80 0 1 0 160 0 80 80 0 1 0-160 0ZM879.7 190.3c-50.6-50.6-117.9-78.5-189.5-78.5h-500c-22.1 0-40 17.9-40 40 0 26.5 21.5 48 48 48h492c48.2 0 93.4 18.7 127.3 52.7 34 34.1 52.7 79.3 52.7 127.3 0 48.2-18.7 93.4-52.7 127.3-34 34-79.2 52.7-127.3 52.7H521.9c-11 0-20 9-20 20v48c0 11 9 20 20 20h168.3c71.6 0 138.9-27.9 189.5-78.5 50.6-50.6 78.5-117.9 78.5-189.5s-27.9-138.9-78.5-189.5zM826.9 823.5h-496c-48.2 0-93.4-18.7-127.3-52.7-34-34.1-52.7-79.3-52.7-127.3 0-48.2 18.7-93.4 52.7-127.3 34-34 79.2-52.7 127.3-52.7h168c11 0 20-9 20-20v-48c0-11-9-20-20-20h-168c-71.6 0-138.9 27.9-189.5 78.5-50.6 50.6-78.5 117.9-78.5 189.5S90.8 782.4 141.4 833c50.6 50.6 117.9 78.5 189.5 78.5h496c24.3 0 44-19.7 44-44s-19.7-44-44-44z" /></svg>