<?xml version="1.0" standalone="no"?><!DOCTYPE svg PUBLIC "-//W3C//DTD SVG 1.1//EN" "http://www.w3.org/Graphics/SVG/1.1/DTD/svg11.dtd"><svg class="icon" width="200px" height="200.00px" viewBox="0 0 1024 1024" version="1.1" xmlns="http://www.w3.org/2000/svg"><path fill="#333333" d="M219.428571 717.726476a41.106286 41.106286 0 0 0-41.155047-41.155047H41.155048a41.106286 41.106286 0 1 0 0 82.310095h137.118476a41.106286 41.106286 0 0 0 41.155047-41.155048zM41.155048 349.720381h137.118476a41.106286 41.106286 0 1 0 0-82.310095H41.155048a41.106286 41.106286 0 1 0 0 82.310095zM941.738667 0H155.452952C109.958095 0 73.142857 36.815238 73.142857 82.310095V146.285714a41.106286 41.106286 0 1 0 82.310095 0V82.261333h786.285715v859.428572H155.452952v-61.68381h-0.146285L155.40419 877.714286a41.106286 41.106286 0 1 0-82.163809 2.291809H73.142857v61.68381c0 45.494857 36.815238 82.310095 82.310095 82.310095h786.285715c45.446095 0 82.261333-36.815238 82.261333-82.310095V82.310095C1024 36.815238 987.184762 0 941.689905 0zM41.155048 554.276571h137.118476a41.106286 41.106286 0 1 0 0-82.261333H41.155048a41.106286 41.106286 0 1 0 0 82.261333z m543.548952 39.984762a187.684571 187.684571 0 0 1-187.440762-187.392A187.684571 187.684571 0 0 1 584.655238 219.428571a187.684571 187.684571 0 0 1 187.392 187.440762 187.684571 187.684571 0 0 1-187.392 187.440762z m0-292.571428a105.325714 105.325714 0 0 0-105.179429 105.179428 105.325714 105.325714 0 0 0 105.179429 105.130667 105.325714 105.325714 0 0 0 105.130667-105.130667 105.325714 105.325714 0 0 0-105.130667-105.130666zM800.182857 804.571429a40.96 40.96 0 0 1-40.277333-33.499429 178.468571 178.468571 0 0 0-350.403048 0A41.155048 41.155048 0 0 1 328.655238 755.809524a260.632381 260.632381 0 1 1 512 0 41.155048 41.155048 0 0 1-40.472381 48.810666z" /></svg>