<?xml version="1.0" standalone="no"?><!DOCTYPE svg PUBLIC "-//W3C//DTD SVG 1.1//EN" "http://www.w3.org/Graphics/SVG/1.1/DTD/svg11.dtd"><svg class="icon" width="200px" height="200.00px" viewBox="0 0 1024 1024" version="1.1" xmlns="http://www.w3.org/2000/svg"><path fill="#333333" d="M1020.185573 134.631859a16.929142 16.929142 0 0 0-15.224294-6.018114 16.315397 16.315397 0 0 0-3.81886 0.664891L12.586212 398.15024a17.082579 17.082579 0 0 0-12.581779 16.008524c-0.187533 7.51838 4.586042 14.286628 11.729355 16.639318l361.717634 118.521044-32.358018 258.830048a17.048482 17.048482 0 0 0 27.277571 15.650506l132.38146-101.370271 116.049014 165.796483a17.031433 17.031433 0 0 0 13.962707 7.279702l1.159296-0.034097a17.014385 17.014385 0 0 0 13.996804-9.240277l376.14065-733.08471a16.912094 16.912094 0 0 0-1.875333-18.514651z m-118.401705 57.010123L389.749771 518.768247 76.449824 416.119339l825.334044-224.477357z m-521.802877 580.330314l23.561002-188.436867 77.655833 110.93447-101.216835 77.502397z m248.566862 73.530101l-212.253596-303.224294 547.25626-349.630261-335.002664 652.854555z"  /></svg>