<?xml version="1.0" standalone="no"?><!DOCTYPE svg PUBLIC "-//W3C//DTD SVG 1.1//EN" "http://www.w3.org/Graphics/SVG/1.1/DTD/svg11.dtd"><svg class="icon" width="200px" height="200.00px" viewBox="0 0 1024 1024" version="1.1" xmlns="http://www.w3.org/2000/svg"><path fill="#333333" d="M511.11177 895.78485c-151.292752 0-294.957779-90.026386-355.705328-238.474346-80.09213-195.892529 14.075577-420.402839 209.94764-500.515435 195.762569-80.132038 420.367023 14.054087 500.502132 209.907731 23.870664 58.426691 33.067116 122.262578 26.600845 184.626951-1.655709 15.884782-15.804964 27.187199-31.781844 25.793456-15.885805-1.660826-27.436886-15.884782-25.793456-31.78696 5.500271-52.905954-2.319835-107.090017-22.61302-156.719344-68.033489-166.31284-258.784928-246.25659-425.001577-178.239474-166.330236 68.016093-246.313895 258.671341-178.275289 425.018973 68.034513 166.31284 258.747065 246.238171 425.0026 178.239474 14.866592-6.085602 31.69077 1.074472 37.758975 15.8285 6.045693 14.805194-1.039679 31.69077-15.8285 37.753859C608.521311 886.61091 559.421033 895.78485 511.11177 895.78485M772.531711 784.317129c-0.375553 0-0.751107 0-1.127683-0.016373-15.95846-0.621147-28.414143-14.055111-27.811416-30.036084l3.657296-95.675036c0.6191-15.95846 14.486946-28.487821 30.029944-27.806299 15.959483 0.621147 28.414143 14.055111 27.811416 30.030967l-3.656273 95.675036C800.832268 772.072247 788.001031 784.317129 772.531711 784.317129M868.228237 787.974425c-0.375553 0-0.750083 0-1.130753-0.017396l-95.692433-3.656273c-15.95846-0.602727-28.414143-14.055111-27.811416-30.030967 0.621147-15.95846 14.190187-28.299533 30.034037-27.811416l95.693456 3.657296c15.959483 0.602727 28.414143 14.054087 27.811416 30.029944C896.528793 775.729543 883.697557 787.974425 868.228237 787.974425M610.914824 623.264083l-200.568015 0c-15.975856 0-28.938076-12.961196-28.938076-28.938076 0-15.980973 12.96222-28.942169 28.938076-28.942169l200.568015 0c15.975856 0 28.938076 12.961196 28.938076 28.942169C639.8529 610.30391 626.89068 623.264083 610.914824 623.264083M629.17163 540.910447 392.090003 540.910447c-15.975856 0-28.938076-12.96222-28.938076-28.938076 0-15.980973 12.96222-28.943193 28.938076-28.943193l237.081627 0c15.97688 0 28.938076 12.96222 28.938076 28.943193C658.109706 527.948227 645.148509 540.910447 629.17163 540.910447M510.640026 706.808848c-15.975856 0-28.938076-12.96222-28.938076-28.943193L481.70195 455.541127c0-15.980973 12.96222-28.943193 28.938076-28.943193 15.975856 0 28.943193 12.96222 28.943193 28.943193l0 222.324528C539.582195 693.846628 526.615882 706.808848 510.640026 706.808848M510.640026 489.11478c-7.404644 0-14.809287-2.826372-20.463054-8.475022l-89.664136-89.649809c-11.305487-11.301394-11.305487-29.615505 0-40.922015 11.30651-11.301394 29.620621-11.301394 40.922015 0l89.668229 89.645716c11.301394 11.30651 11.301394 29.620621 0 40.926108C525.449313 486.288408 518.04467 489.11478 510.640026 489.11478M510.394433 489.11478c-7.404644 0-14.809287-2.826372-20.463054-8.475022-11.301394-11.305487-11.301394-29.619598 0-40.926108l94.754061-94.731548c11.305487-11.305487 29.619598-11.305487 40.926108 0 11.301394 11.302417 11.301394 29.616528 0 40.922015l-94.753037 94.735641C525.205766 486.288408 517.8001 489.11478 510.394433 489.11478" /></svg>