<?xml version="1.0" standalone="no"?><!DOCTYPE svg PUBLIC "-//W3C//DTD SVG 1.1//EN" "http://www.w3.org/Graphics/SVG/1.1/DTD/svg11.dtd"><svg class="icon" width="200px" height="200.00px" viewBox="0 0 1024 1024" version="1.1" xmlns="http://www.w3.org/2000/svg"><path fill="#333333" d="M521.309091 983.272727a121.949091 121.949091 0 0 1-78.545455-29.090909l-2.327272-2.210909L99.258182 596.130909A29.090909 29.090909 0 0 1 119.621818 546.909091l99.607273-2.210909V161.629091a122.298182 122.298182 0 0 1 122.181818-122.181818h362.007273a122.298182 122.298182 0 0 1 122.181818 122.181818v375.854545l98.210909-2.210909a29.090909 29.090909 0 0 1 21.876364 48.872728L603.694545 951.04l-2.210909 2.094545a121.949091 121.949091 0 0 1-80.174545 30.138182z m-40.029091-72.378182a63.650909 63.650909 0 0 0 81.454545-0.698181l293.352728-315.229091-58.996364 1.396363a29.090909 29.090909 0 0 1-29.789091-29.090909V161.629091a64.116364 64.116364 0 0 0-64-64H341.294545a64.116364 64.116364 0 0 0-64 64v411.461818a29.090909 29.090909 0 0 1-28.392727 29.090909l-61.905454 1.396364z"  /><path fill="#333333" d="M632.901818 512h-81.454545v-58.181818h81.454545a29.090909 29.090909 0 0 0 0-58.181818h-58.181818l55.04-55.04a29.090909 29.090909 0 0 0-41.192727-41.192728l-66.676364 66.676364-66.676364-66.676364a29.090909 29.090909 0 0 0-41.192727 41.192728L469.643636 395.636364h-58.181818a29.090909 29.090909 0 0 0 0 58.181818h81.454546v58.181818h-81.454546a29.090909 29.090909 0 0 0 0 58.181818h81.454546v64a29.090909 29.090909 0 0 0 58.181818 0V570.181818h81.454545a29.090909 29.090909 0 0 0 0-58.181818z"  /></svg>