<?xml version="1.0" standalone="no"?><!DOCTYPE svg PUBLIC "-//W3C//DTD SVG 1.1//EN" "http://www.w3.org/Graphics/SVG/1.1/DTD/svg11.dtd"><svg class="icon" width="200px" height="200.00px" viewBox="0 0 1024 1024" version="1.1" xmlns="http://www.w3.org/2000/svg"><path fill="#333333" d="M270 561.9c-15.3 14.7-15.6 38.9-0.7 54 14.9 15.2 39.3 15.5 54.6 0.7 0.2-0.3 0.5-0.5 0.7-0.7l119.3-117.7c15.1-14.9 15.1-39.1 0-54L324.8 326.4c-15.1-14.9-39.6-14.9-54.7 0s-15.1 39.1 0 54l53.1 52.6H118.8c-21.4 0-38.7 17.1-38.7 38.2s17.3 38.2 38.6 38.2h204.4L270 561.9zM904.3 115c-4.6-1.9-9.6-2.8-14.6-2.9-0.6-0.1-1.3-0.1-2.1-0.1H279.9c-22 0-39.8 17.8-39.8 39.8s17.8 39.8 39.8 39.8h493.4L577.6 281c-11.7 6.5-19.1 18.7-19.3 32v428H281.9c-23.1 0-41.8 18.7-41.8 41.8s18.7 41.8 41.8 41.8h276.4v89.1c0 21.1 17.3 38.2 38.6 38.2 6.9-0.2 13.6-2.4 19.4-6.2l16.2-9.6 0.5 0.8L893.9 785l14.8-10c5.2-3 9.5-7.3 12.6-12.3l1.4-2c3.3-5.3 5.1-11.4 5.2-17.7V150.3c0-15.4-9.3-29.3-23.6-35.3z m-51.1 590.8l-212 118v-464l212-107v453z" /></svg>